<svg width="36" height="9" viewBox="0 0 36 9" fill="none" xmlns="http://www.w3.org/2000/svg">
<path d="M4.40653 8.6417C6.7094 8.6417 8.57625 6.77406 8.57625 4.47021C8.57625 2.16635 6.7094 0.298706 4.40653 0.298706C2.10366 0.298706 0.236816 2.16635 0.236816 4.47021C0.236816 6.77406 2.10366 8.6417 4.40653 8.6417Z" fill="#F88FCD"/>
<path d="M17.958 8.6417C20.2609 8.6417 22.1278 6.77406 22.1278 4.47021C22.1278 2.16635 20.2609 0.298706 17.958 0.298706C15.6552 0.298706 13.7883 2.16635 13.7883 4.47021C13.7883 6.77406 15.6552 8.6417 17.958 8.6417Z" fill="#F88FCD"/>
<path d="M31.5098 8.6417C33.8127 8.6417 35.6795 6.77406 35.6795 4.47021C35.6795 2.16635 33.8127 0.298706 31.5098 0.298706C29.2069 0.298706 27.3401 2.16635 27.3401 4.47021C27.3401 6.77406 29.2069 8.6417 31.5098 8.6417Z" fill="#F88FCD"/>
</svg>
