<svg width="238" height="259" viewBox="0 0 238 259" fill="none" xmlns="http://www.w3.org/2000/svg">
<path d="M219.139 0H18.1174C8.11144 0 0 8.11491 0 18.1252V240.875C0 250.885 8.11144 259 18.1174 259H219.139C229.145 259 237.257 250.885 237.257 240.875V18.1252C237.257 8.11491 229.145 0 219.139 0Z" fill="#F5F1F0"/>
<path d="M20.4065 21.6417C22.7094 21.6417 24.5762 19.7741 24.5762 17.4702C24.5762 15.1664 22.7094 13.2987 20.4065 13.2987C18.1037 13.2987 16.2368 15.1664 16.2368 17.4702C16.2368 19.7741 18.1037 21.6417 20.4065 21.6417Z" fill="#F88FCD"/>
<path d="M33.958 21.6417C36.2609 21.6417 38.1278 19.7741 38.1278 17.4702C38.1278 15.1664 36.2609 13.2987 33.958 13.2987C31.6552 13.2987 29.7883 15.1664 29.7883 17.4702C29.7883 19.7741 31.6552 21.6417 33.958 21.6417Z" fill="#F88FCD"/>
<path d="M47.5098 21.6417C49.8127 21.6417 51.6795 19.7741 51.6795 17.4702C51.6795 15.1664 49.8127 13.2987 47.5098 13.2987C45.2069 13.2987 43.3401 15.1664 43.3401 17.4702C43.3401 19.7741 45.2069 21.6417 47.5098 21.6417Z" fill="#F88FCD"/>
<path d="M119.02 131.557C142.51 131.557 161.551 112.507 161.551 89.0073C161.551 65.508 142.51 46.458 119.02 46.458C95.5311 46.458 76.4893 65.508 76.4893 89.0073C76.4893 112.507 95.5311 131.557 119.02 131.557Z" stroke="#145240" stroke-width="4" stroke-miterlimit="10"/>
<path d="M196.219 183.275L165.275 183.529L134.177 181.994L103.084 183.825L71.986 184.493L41.176 183.112L41.8057 157.866L71.9819 156.081L103.08 158.221L134.173 156.302L165.271 156.961L196.398 156.761L196.219 183.275Z" fill="#FBC600"/>
<path d="M196.164 222.883L165.275 222.666L134.177 223.914L103.084 223.951L71.9859 222.508L40.0459 224.105L40.8048 196.373L71.9817 196.377L103.079 195.827L134.173 195.86L165.271 195.589L196.64 196.156L196.164 222.883Z" fill="#F88FCD"/>
<mask id="mask0_43_1911" style="mask-type:luminance" maskUnits="userSpaceOnUse" x="76" y="46" width="86" height="86">
<path d="M119.02 131.557C142.51 131.557 161.551 112.507 161.551 89.0073C161.551 65.508 142.51 46.458 119.02 46.458C95.5311 46.458 76.4893 65.508 76.4893 89.0073C76.4893 112.507 95.5311 131.557 119.02 131.557Z" fill="white"/>
</mask>
<g mask="url(#mask0_43_1911)">
<path d="M111.736 101.918V113.018L84.7412 131.402L71.0562 166.414L83.4902 175.132L93.8395 155.518V194.746H132.234V154.429L146.157 171.545L159.258 163.352L140.424 124.849L124.045 110.103L122.611 100.45" stroke="#145240" stroke-width="4" stroke-linecap="round" stroke-linejoin="round"/>
<path d="M102.254 119.476L115.856 153.882L130.779 116.168" stroke="#145240" stroke-width="4" stroke-linecap="round" stroke-linejoin="round"/>
<path d="M140.423 124.849L115.855 153.882L92.5967 126.054" stroke="#145240" stroke-width="4" stroke-linecap="round" stroke-linejoin="round"/>
<path d="M103.634 74.6448C101.057 77.5398 99.481 81.3442 99.481 85.524C99.481 94.572 106.811 101.91 115.86 101.91C124.908 101.91 132.238 94.5762 132.238 85.524C115.201 87.9602 103.847 74.8867 103.638 74.6448H103.634Z" stroke="#145240" stroke-width="4" stroke-linecap="round" stroke-linejoin="round"/>
<path d="M115.855 69.1426C110.989 69.1426 106.632 71.2784 103.634 74.649C103.843 74.8909 115.197 87.9644 132.234 85.5282C132.234 76.4802 124.904 69.1426 115.855 69.1426Z" fill="#145240" stroke="#145240" stroke-width="4" stroke-linecap="round" stroke-linejoin="round"/>
<path d="M134.69 82.2495C141.926 82.2495 147.791 76.3813 147.791 69.1426C147.791 61.9039 141.926 56.0358 134.69 56.0358C127.454 56.0358 121.589 61.9039 121.589 69.1426C121.589 76.3813 127.454 82.2495 134.69 82.2495Z" fill="#145240" stroke="#145240" stroke-width="4" stroke-linecap="round" stroke-linejoin="round"/>
</g>
<path d="M64.4222 213.969C66.725 213.969 68.5919 212.101 68.5919 209.797C68.5919 207.493 66.725 205.626 64.4222 205.626C62.1193 205.626 60.2524 207.493 60.2524 209.797C60.2524 212.101 62.1193 213.969 64.4222 213.969Z" fill="#145240"/>
<path d="M77.9737 213.969C80.2765 213.969 82.1434 212.101 82.1434 209.797C82.1434 207.493 80.2765 205.626 77.9737 205.626C75.6708 205.626 73.804 207.493 73.804 209.797C73.804 212.101 75.6708 213.969 77.9737 213.969Z" fill="#145240"/>
<path d="M91.5252 213.969C93.8281 213.969 95.6949 212.101 95.6949 209.797C95.6949 207.493 93.8281 205.626 91.5252 205.626C89.2223 205.626 87.3555 207.493 87.3555 209.797C87.3555 212.101 89.2223 213.969 91.5252 213.969Z" fill="#145240"/>
<path d="M105.077 213.969C107.38 213.969 109.246 212.101 109.246 209.797C109.246 207.493 107.38 205.626 105.077 205.626C102.774 205.626 100.907 207.493 100.907 209.797C100.907 212.101 102.774 213.969 105.077 213.969Z" fill="#145240"/>
<path d="M118.628 213.969C120.931 213.969 122.798 212.101 122.798 209.797C122.798 207.493 120.931 205.626 118.628 205.626C116.326 205.626 114.459 207.493 114.459 209.797C114.459 212.101 116.326 213.969 118.628 213.969Z" fill="#145240"/>
<path d="M132.18 213.969C134.483 213.969 136.35 212.101 136.35 209.797C136.35 207.493 134.483 205.626 132.18 205.626C129.877 205.626 128.01 207.493 128.01 209.797C128.01 212.101 129.877 213.969 132.18 213.969Z" fill="#145240"/>
<path d="M145.731 213.969C148.034 213.969 149.901 212.101 149.901 209.797C149.901 207.493 148.034 205.626 145.731 205.626C143.429 205.626 141.562 207.493 141.562 209.797C141.562 212.101 143.429 213.969 145.731 213.969Z" fill="#145240"/>
<path d="M159.283 213.969C161.586 213.969 163.453 212.101 163.453 209.797C163.453 207.493 161.586 205.626 159.283 205.626C156.98 205.626 155.113 207.493 155.113 209.797C155.113 212.101 156.98 213.969 159.283 213.969Z" fill="#145240"/>
<path d="M172.835 213.969C175.138 213.969 177.004 212.101 177.004 209.797C177.004 207.493 175.138 205.626 172.835 205.626C170.532 205.626 168.665 207.493 168.665 209.797C168.665 212.101 170.532 213.969 172.835 213.969Z" fill="#145240"/>
<path d="M67.1323 173.409C67.1323 173.409 82.8396 178.924 99.4476 162.313C101.249 160.511 103.817 157.445 102.329 154.733C101.157 152.598 98.1633 152.014 95.9576 151.922C90.5953 151.692 83.5235 154.796 85.6584 161.278C87.8183 167.832 94.936 174.022 101.895 174.277C108.946 174.531 115.835 172.074 121.626 168.157C124.149 166.451 126.48 164.474 128.631 162.321C130.145 160.807 132.939 157.829 131.4 155.493C130.158 153.607 126.98 153.661 125.037 153.853C119.396 154.404 112.011 158.15 112.524 164.783C112.728 167.415 114.133 169.826 115.73 171.857C117.586 174.214 119.929 177.009 122.894 177.881C126.259 178.87 129.524 179.662 133.072 179.462C140.04 179.062 146.845 176.183 151.982 171.457C153.462 170.097 154.851 168.508 155.372 166.564C155.939 164.44 155.168 162.242 153.416 160.966C150.844 159.093 146.386 159.906 143.905 161.483C141.095 163.268 138.53 165.287 137.701 168.679C136.742 172.592 137.455 177.197 140.353 180.155C141.808 181.64 143.713 182.612 145.665 183.333C154.042 186.449 163.895 185.252 171.283 180.221" stroke="#145240" stroke-width="4" stroke-miterlimit="10"/>
</svg>
