<svg width="107" height="39" viewBox="0 0 107 39" fill="none" xmlns="http://www.w3.org/2000/svg">
<path d="M1.13232 24.4092C1.13232 24.4092 16.8396 29.9239 33.4476 13.313C35.2489 11.5109 37.8175 8.44488 36.3289 5.7334C35.1572 3.59759 32.1633 3.01359 29.9576 2.92182C24.5953 2.69238 17.5235 5.79598 19.6584 12.2785C21.8183 18.8319 28.936 25.0224 35.8952 25.2769C42.9462 25.5313 49.8346 23.0743 55.6263 19.1573C58.149 17.4511 60.4799 15.4739 62.6314 13.3214C64.1451 11.8071 66.9388 8.82866 65.4001 6.49262C64.1576 4.6071 60.9802 4.66133 59.0372 4.85322C53.3955 5.40386 46.011 9.14986 46.5238 15.7825C46.7282 18.4148 48.1333 20.8259 49.7303 22.8574C51.5859 25.2143 53.9293 28.0092 56.8939 28.8811C60.2589 29.8697 63.5238 30.6623 67.0722 30.462C74.0398 30.0616 80.8448 27.1832 85.9819 22.4569C87.4621 21.097 88.8506 19.5077 89.3718 17.5638C89.9389 15.4405 89.1675 13.2421 87.4162 11.9656C84.8435 10.0926 80.3861 10.9061 77.9051 12.4829C75.0947 14.2683 72.5304 16.2873 71.7006 19.6787C70.7415 23.5916 71.4546 28.1969 74.3525 31.1545C75.8078 32.6396 77.7133 33.6115 79.6647 34.3332C88.0417 37.4493 97.8947 36.2521 105.283 31.2213" stroke="#145240" stroke-width="4" stroke-miterlimit="10"/>
</svg>
