<svg width="117" height="9" viewBox="0 0 117 9" fill="none" xmlns="http://www.w3.org/2000/svg">
<path d="M4.42216 8.96867C6.72503 8.96867 8.59187 7.10103 8.59187 4.79717C8.59187 2.49331 6.72503 0.625671 4.42216 0.625671C2.11929 0.625671 0.252441 2.49331 0.252441 4.79717C0.252441 7.10103 2.11929 8.96867 4.42216 8.96867Z" fill="#145240"/>
<path d="M17.9737 8.96867C20.2765 8.96867 22.1434 7.10103 22.1434 4.79717C22.1434 2.49331 20.2765 0.625671 17.9737 0.625671C15.6708 0.625671 13.804 2.49331 13.804 4.79717C13.804 7.10103 15.6708 8.96867 17.9737 8.96867Z" fill="#145240"/>
<path d="M31.5252 8.96867C33.8281 8.96867 35.6949 7.10103 35.6949 4.79717C35.6949 2.49331 33.8281 0.625671 31.5252 0.625671C29.2223 0.625671 27.3555 2.49331 27.3555 4.79717C27.3555 7.10103 29.2223 8.96867 31.5252 8.96867Z" fill="#145240"/>
<path d="M45.0767 8.96867C47.3796 8.96867 49.2464 7.10103 49.2464 4.79717C49.2464 2.49331 47.3796 0.625671 45.0767 0.625671C42.7738 0.625671 40.907 2.49331 40.907 4.79717C40.907 7.10103 42.7738 8.96867 45.0767 8.96867Z" fill="#145240"/>
<path d="M58.6285 8.96867C60.9313 8.96867 62.7982 7.10103 62.7982 4.79717C62.7982 2.49331 60.9313 0.625671 58.6285 0.625671C56.3256 0.625671 54.4587 2.49331 54.4587 4.79717C54.4587 7.10103 56.3256 8.96867 58.6285 8.96867Z" fill="#145240"/>
<path d="M72.18 8.96867C74.4828 8.96867 76.3497 7.10103 76.3497 4.79717C76.3497 2.49331 74.4828 0.625671 72.18 0.625671C69.8771 0.625671 68.0103 2.49331 68.0103 4.79717C68.0103 7.10103 69.8771 8.96867 72.18 8.96867Z" fill="#145240"/>
<path d="M85.7315 8.96867C88.0344 8.96867 89.9012 7.10103 89.9012 4.79717C89.9012 2.49331 88.0344 0.625671 85.7315 0.625671C83.4286 0.625671 81.5618 2.49331 81.5618 4.79717C81.5618 7.10103 83.4286 8.96867 85.7315 8.96867Z" fill="#145240"/>
<path d="M99.283 8.96867C101.586 8.96867 103.453 7.10103 103.453 4.79717C103.453 2.49331 101.586 0.625671 99.283 0.625671C96.9801 0.625671 95.1133 2.49331 95.1133 4.79717C95.1133 7.10103 96.9801 8.96867 99.283 8.96867Z" fill="#145240"/>
<path d="M112.835 8.96867C115.138 8.96867 117.004 7.10103 117.004 4.79717C117.004 2.49331 115.138 0.625671 112.835 0.625671C110.532 0.625671 108.665 2.49331 108.665 4.79717C108.665 7.10103 110.532 8.96867 112.835 8.96867Z" fill="#145240"/>
</svg>
