<svg width="371" height="405" viewBox="0 0 371 405" fill="none" xmlns="http://www.w3.org/2000/svg">
<path d="M342.67 0H28.3303C12.6839 0 0 12.6893 0 28.3424V376.658C0 392.311 12.6839 405 28.3303 405H342.67C358.316 405 371 392.311 371 376.658V28.3424C371 12.6893 358.316 0 342.67 0Z" fill="#F5F1F0"/>
<path d="M31.9099 33.8413C35.5109 33.8413 38.4301 30.9208 38.4301 27.3183C38.4301 23.7157 35.5109 20.7953 31.9099 20.7953C28.3088 20.7953 25.3896 23.7157 25.3896 27.3183C25.3896 30.9208 28.3088 33.8413 31.9099 33.8413Z" fill="#F88FCD"/>
<path d="M53.1005 33.8413C56.7015 33.8413 59.6207 30.9208 59.6207 27.3183C59.6207 23.7157 56.7015 20.7953 53.1005 20.7953C49.4995 20.7953 46.5803 23.7157 46.5803 27.3183C46.5803 30.9208 49.4995 33.8413 53.1005 33.8413Z" fill="#F88FCD"/>
<path d="M74.2912 33.8413C77.8923 33.8413 80.8114 30.9208 80.8114 27.3183C80.8114 23.7157 77.8923 20.7953 74.2912 20.7953C70.6902 20.7953 67.771 23.7157 67.771 27.3183C67.771 30.9208 70.6902 33.8413 74.2912 33.8413Z" fill="#F88FCD"/>
<path d="M186.113 205.716C222.843 205.716 252.619 175.927 252.619 139.181C252.619 102.435 222.843 72.6466 186.113 72.6466C149.383 72.6466 119.607 102.435 119.607 139.181C119.607 175.927 149.383 205.716 186.113 205.716Z" stroke="#145240" stroke-width="9" stroke-miterlimit="10"/>
<path d="M306.828 286.588L258.442 286.986L209.814 284.585L161.193 287.449L112.565 288.493L64.3871 286.334L65.3716 246.856L112.558 244.065L161.186 247.411L209.807 244.41L258.435 245.441L307.108 245.128L306.828 286.588Z" fill="#FBC600"/>
<path d="M306.743 348.524L258.442 348.185L209.814 350.135L161.193 350.194L112.565 347.937L62.6201 350.435L63.8068 307.07L112.558 307.077L161.186 306.216L209.807 306.268L258.435 305.844L307.487 306.731L306.743 348.524Z" fill="#F88FCD"/>
<mask id="mask0_39_581" style="mask-type:luminance" maskUnits="userSpaceOnUse" x="119" y="72" width="134" height="134">
<path d="M186.113 205.716C222.843 205.716 252.619 175.927 252.619 139.181C252.619 102.435 222.843 72.6466 186.113 72.6466C149.383 72.6466 119.607 102.435 119.607 139.181C119.607 175.927 149.383 205.716 186.113 205.716Z" fill="white"/>
</mask>
<g mask="url(#mask0_39_581)">
<path d="M174.722 159.37V176.728L132.51 205.474L111.111 260.222L130.554 273.855L146.737 243.184V304.526H206.775V241.481L228.546 268.245L249.033 255.434L219.581 195.227L193.97 172.168L191.727 157.074" stroke="#145240" stroke-width="9" stroke-linecap="round" stroke-linejoin="round"/>
<path d="M159.895 186.825L181.164 240.627L204.5 181.652" stroke="#145240" stroke-width="9" stroke-linecap="round" stroke-linejoin="round"/>
<path d="M219.581 195.227L181.164 240.627L144.794 197.112" stroke="#145240" stroke-width="4" stroke-linecap="round" stroke-linejoin="round"/>
<path d="M162.053 116.723C158.024 121.249 155.559 127.198 155.559 133.735C155.559 147.883 167.022 159.357 181.17 159.357C195.319 159.357 206.782 147.889 206.782 133.735C180.14 137.544 162.386 117.101 162.06 116.723H162.053Z" stroke="#145240" stroke-width="9" stroke-linecap="round" stroke-linejoin="round"/>
<path d="M181.164 108.119C173.555 108.119 166.741 111.458 162.053 116.729C162.379 117.107 180.134 137.55 206.775 133.741C206.775 119.593 195.313 108.119 181.164 108.119Z" fill="#145240" stroke="#145240" stroke-width="9" stroke-linecap="round" stroke-linejoin="round"/>
<path d="M210.616 128.614C221.93 128.614 231.102 119.438 231.102 108.119C231.102 96.7995 221.93 87.6234 210.616 87.6234C199.301 87.6234 190.129 96.7995 190.129 108.119C190.129 119.438 199.301 128.614 210.616 128.614Z" fill="#145240" stroke="#145240" stroke-width="9" stroke-linecap="round" stroke-linejoin="round"/>
</g>
<path d="M100.737 334.584C104.338 334.584 107.257 331.664 107.257 328.061C107.257 324.459 104.338 321.538 100.737 321.538C97.1362 321.538 94.217 324.459 94.217 328.061C94.217 331.664 97.1362 334.584 100.737 334.584Z" fill="#145240"/>
<path d="M121.928 334.584C125.529 334.584 128.448 331.664 128.448 328.061C128.448 324.459 125.529 321.538 121.928 321.538C118.327 321.538 115.408 324.459 115.408 328.061C115.408 331.664 118.327 334.584 121.928 334.584Z" fill="#145240"/>
<path d="M143.119 334.584C146.72 334.584 149.639 331.664 149.639 328.061C149.639 324.459 146.72 321.538 143.119 321.538C139.518 321.538 136.598 324.459 136.598 328.061C136.598 331.664 139.518 334.584 143.119 334.584Z" fill="#145240"/>
<path d="M164.309 334.584C167.91 334.584 170.83 331.664 170.83 328.061C170.83 324.459 167.91 321.538 164.309 321.538C160.708 321.538 157.789 324.459 157.789 328.061C157.789 331.664 160.708 334.584 164.309 334.584Z" fill="#145240"/>
<path d="M185.5 334.584C189.101 334.584 192.02 331.664 192.02 328.061C192.02 324.459 189.101 321.538 185.5 321.538C181.899 321.538 178.98 324.459 178.98 328.061C178.98 331.664 181.899 334.584 185.5 334.584Z" fill="#145240"/>
<path d="M206.691 334.584C210.292 334.584 213.211 331.664 213.211 328.061C213.211 324.459 210.292 321.538 206.691 321.538C203.09 321.538 200.17 324.459 200.17 328.061C200.17 331.664 203.09 334.584 206.691 334.584Z" fill="#145240"/>
<path d="M227.881 334.584C231.482 334.584 234.402 331.664 234.402 328.061C234.402 324.459 231.482 321.538 227.881 321.538C224.28 321.538 221.361 324.459 221.361 328.061C221.361 331.664 224.28 334.584 227.881 334.584Z" fill="#145240"/>
<path d="M249.072 334.584C252.673 334.584 255.592 331.664 255.592 328.061C255.592 324.459 252.673 321.538 249.072 321.538C245.471 321.538 242.552 324.459 242.552 328.061C242.552 331.664 245.471 334.584 249.072 334.584Z" fill="#145240"/>
<path d="M270.263 334.584C273.864 334.584 276.783 331.664 276.783 328.061C276.783 324.459 273.864 321.538 270.263 321.538C266.662 321.538 263.743 324.459 263.743 328.061C263.743 331.664 266.662 334.584 270.263 334.584Z" fill="#145240"/>
<path d="M104.975 271.161C104.975 271.161 129.537 279.784 155.507 253.81C158.324 250.992 162.34 246.198 160.012 241.958C158.18 238.618 153.499 237.705 150.05 237.561C141.665 237.202 130.606 242.055 133.945 252.192C137.322 262.44 148.452 272.12 159.334 272.518C170.36 272.916 181.131 269.074 190.188 262.949C194.133 260.281 197.777 257.189 201.142 253.823C203.509 251.455 207.877 246.798 205.471 243.145C203.528 240.196 198.56 240.281 195.522 240.581C186.7 241.442 175.152 247.3 175.954 257.672C176.274 261.788 178.471 265.558 180.968 268.735C183.87 272.42 187.534 276.79 192.17 278.154C197.432 279.7 202.537 280.939 208.086 280.626C218.981 280 229.622 275.499 237.655 268.108C239.97 265.982 242.141 263.497 242.956 260.457C243.843 257.137 242.637 253.699 239.898 251.703C235.875 248.774 228.905 250.046 225.025 252.512C220.631 255.304 216.621 258.461 215.323 263.764C213.824 269.883 214.939 277.084 219.47 281.709C221.746 284.031 224.726 285.551 227.777 286.679C240.876 291.552 256.283 289.68 267.837 281.813" stroke="#145240" stroke-width="9" stroke-miterlimit="10"/>
</svg>
