<svg width="62" height="66" viewBox="0 0 62 66" fill="none" xmlns="http://www.w3.org/2000/svg">
<path d="M52.6092 56.9345C58.6703 50.8735 59.8896 27.698 59.8896 27.698C59.8896 27.698 36.7142 28.9174 30.6531 34.9784C24.592 41.0395 24.592 50.8735 30.6531 56.9345C36.7142 62.9956 46.5481 62.9956 52.6092 56.9345Z" stroke="#DEE7D3" stroke-width="4" stroke-miterlimit="10"/>
<path d="M42.9977 44.5901L23.4875 64.1003" stroke="#DEE7D3" stroke-width="4" stroke-miterlimit="10"/>
<path d="M39.4972 16.5441L45.4507 14.2488L39.4972 11.9535L37.2019 6L34.9066 11.9535L28.9531 14.2488L34.9066 16.5441L37.2019 22.4976L39.4972 16.5441Z" stroke="#DEE7D3" stroke-width="4" stroke-miterlimit="10"/>
<path d="M16.5441 33.0417L22.4976 30.7463L16.5441 28.451L14.2488 22.4976L11.9535 28.451L6 30.7463L11.9535 33.0417L14.2488 38.9951L16.5441 33.0417Z" stroke="#DEE7D3" stroke-width="4" stroke-miterlimit="10"/>
<path d="M34.6914 42.5815V52.6235" stroke="#DEE7D3" stroke-width="4" stroke-miterlimit="10"/>
<path d="M38.1775 50.1201H48.7646" stroke="#DEE7D3" stroke-width="4" stroke-miterlimit="10"/>
</svg>
