<svg width="55" height="68" viewBox="0 0 55 68" fill="none" xmlns="http://www.w3.org/2000/svg">
<path d="M27.2966 3L2.06787 12.7267V37.9068C2.06787 44.1927 5.13179 50.053 10.2201 53.4878L27.2966 65.02L44.373 53.4878C49.4552 50.053 52.5252 44.1927 52.5252 37.9068V12.7267L27.2966 3Z" stroke="#DEE7D3" stroke-width="4" stroke-miterlimit="10"/>
<path d="M34.9321 41.7244C39.1693 37.4872 40.0203 21.2861 40.0203 21.2861C40.0203 21.2861 23.8193 22.1372 19.5821 26.3744C15.3449 30.6116 15.3449 37.4872 19.5821 41.7244C23.8193 45.9616 30.6949 45.9616 34.9321 41.7244Z" stroke="#DEE7D3" stroke-width="4" stroke-miterlimit="10"/>
<path d="M28.2145 33.0981L14.5728 46.7338" stroke="#DEE7D3" stroke-width="4" stroke-miterlimit="10"/>
<path d="M22.4089 31.6941V38.7156" stroke="#DEE7D3" stroke-width="4" stroke-miterlimit="10"/>
<path d="M24.8467 36.9646H32.2451" stroke="#DEE7D3" stroke-width="4" stroke-miterlimit="10"/>
</svg>
