<svg width="1550" height="465" viewBox="0 0 1550 465" fill="none" xmlns="http://www.w3.org/2000/svg">
<g clip-path="url(#clip0_186_11)">
<path d="M773 305.402C817.582 258.485 903.843 161.94 1016.65 155.267C1157.65 146.926 1150.39 336.706 1044.64 336.706C959.489 336.706 1046.59 161.183 1578.59 158.764" stroke="#DEE7D3" stroke-width="26"/>
<path d="M43 321.158H71.5066V275.785H113.432V250.665H71.5066V228.063H118.467V202.278H43V321.158Z" fill="#DEE7D3"/>
<path d="M160.214 242.463L155.188 233.091H132.551V321.166H160.392V272.442C160.392 259.381 168.944 255.028 184.707 256.703L184.875 232.931C172.132 231.255 164.752 235.609 160.223 242.472L160.214 242.463Z" fill="#DEE7D3"/>
<path d="M236.853 231.246C210.025 231.246 191.074 250.833 191.074 277.461C191.074 304.088 210.691 322.833 238.363 322.833C258.824 322.833 276.594 310.278 281.292 292.695L256.977 290.185C253.62 296.383 247.084 299.895 238.532 299.895C228.301 299.895 220.087 293.697 219.075 285.495H282.633C283.974 248.492 263.682 231.246 236.853 231.246ZM218.906 267.246C219.412 258.707 226.952 253.52 236.853 253.52C246.755 253.52 254.126 259.044 254.801 267.246H218.915H218.906Z" fill="#DEE7D3"/>
<path d="M320.535 257.369C320.535 253.689 325.232 252.013 330.09 252.013C337.807 252.013 341.83 256.198 342.497 261.057L368.996 260.223C368.827 244.653 353.57 231.086 330.428 231.086C310.473 231.086 293.538 241.47 293.538 259.381C293.538 292.535 343.677 283.322 343.677 295.381C343.677 299.061 338.98 301.074 332.781 301.074C323.891 301.074 317.684 296.552 317.355 290.691L290.189 291.693C290.527 313.798 310.65 322.834 331.946 322.834C354.751 322.834 371.686 312.451 371.686 294.034C371.686 259.71 320.535 269.419 320.535 257.36V257.369Z" fill="#DEE7D3"/>
<path d="M472.623 320.771C472.573 320.796 472.522 320.821 472.463 320.855V269.924C472.463 243.137 455.191 231.246 436.746 231.246C425.006 231.246 416.622 235.768 411.258 243.634V195.583H383.418V321.166H411.258V274.615C411.258 260.72 418.638 255.027 428.025 255.027C435.742 255.027 444.294 258.876 444.294 274.446V321.166C445.002 330.522 450.788 338.842 459.23 343.213C463.186 345.259 467.479 346.269 471.746 346.269C477.254 346.269 482.736 344.585 487.425 341.276L488.049 340.804L511.2 322.211C518.31 326.219 526.845 328.248 536.704 328.248C548.014 328.248 559.4 323.398 569.731 314.219C573.501 319.356 578.57 323.44 584.71 325.874C588.691 327.448 592.925 328.223 597.201 328.223C603.214 328.223 609.32 326.682 614.954 323.642C618.454 321.756 621.668 319.356 624.535 316.543C626.863 319.516 629.764 322.076 633.171 324.072C637.953 326.867 643.225 328.274 648.504 328.265C653.598 328.265 658.692 326.96 663.365 324.349C667.556 322 671.613 319.347 675.51 316.425C677.846 319.448 680.789 322.051 684.239 324.072C689.021 326.867 694.292 328.274 699.572 328.265C704.666 328.265 709.76 326.96 714.432 324.349C716.051 323.448 717.637 322.48 719.214 321.486C718.894 323.465 718.556 325.427 718.143 327.339C715.756 338.446 712.265 345.183 707.778 347.364C696.982 352.611 683.125 341.158 675.83 333.874L657.942 351.735C672.667 366.438 687.798 374.008 701.925 374C707.769 374 713.445 372.703 718.851 370.084C736.706 361.419 741.362 339.76 742.897 332.644C743.259 330.943 743.597 329.225 743.9 327.482C746.127 327.996 748.396 328.274 750.656 328.274C755.75 328.274 760.844 326.968 765.516 324.358C774.347 319.415 782.578 313.158 790 305.747L772.112 287.886C766.334 293.655 759.95 298.514 753.152 302.32C750.943 303.549 749.053 302.825 748.126 302.278C747.527 301.924 746.667 301.259 746.135 300.156C746.127 295.861 745.967 291.491 745.646 287.044V249.823H720.344V288.56C714.753 294.025 708.613 298.665 702.085 302.32C699.875 303.549 697.986 302.825 697.058 302.278C696.131 301.739 694.579 300.451 694.579 297.949V249.815H669.277V288.552C663.685 294.017 657.545 298.657 651.018 302.312C648.816 303.541 646.919 302.817 645.991 302.269C645.063 301.731 643.511 300.442 643.511 297.941V249.806H620.951C619.34 248.829 617.653 247.987 615.89 247.288C596.636 239.676 573.991 251.112 565.396 272.779C563.786 276.838 562.79 280.964 562.343 285.048L562.074 284.88C562.04 284.931 558.81 289.958 553.581 294.775C549.515 298.522 543.283 302.985 536.721 302.985C533.989 302.985 530.514 302.985 527.039 301.823C530.817 296.274 534.587 289.983 538.281 282.851C552.223 255.903 559.442 226.379 556.667 207.625C553.15 183.844 535.912 182 530.716 182C521.473 182 513.098 185.377 506.502 191.76C501.172 196.914 496.913 204.122 493.835 213.192C489.255 226.657 487.029 244.467 487.029 267.617C487.029 282 489.205 293.68 493.641 302.96L472.64 320.771H472.623ZM517.779 221.309C518.538 219.069 519.845 215.238 522.122 212.139C525.192 207.971 531.855 210.185 531.964 215.364C532.083 221.141 531.146 229.764 527.84 241.225C524.484 252.897 519.238 265.385 512.735 276.855C512.465 274.076 512.313 271.011 512.313 267.608C512.313 247.541 514.152 231.962 517.779 221.301V221.309ZM611.69 291.078C609.894 295.608 606.697 299.381 602.936 301.411C601.148 302.379 597.614 303.785 594.038 302.371C587.864 299.928 585.52 290.632 588.91 282.067C591.736 274.943 597.808 270.168 603.315 270.168C604.429 270.168 605.525 270.362 606.562 270.775C610.138 272.189 611.749 275.634 612.39 277.554C613.74 281.613 613.487 286.539 611.69 291.069V291.078Z" fill="#DEE7D3"/>
</g>
<defs>
<clipPath id="clip0_186_11">
<rect width="1550" height="465" fill="white"/>
</clipPath>
</defs>
</svg>
