<svg width="252" height="64" viewBox="0 0 252 64" fill="none" xmlns="http://www.w3.org/2000/svg">
<g clip-path="url(#clip0_80_253)">
<path d="M0 46.386H9.61669V31.2618H23.7601V22.8884H9.61669V15.3544H25.4586V6.75931H0V46.386Z" fill="#145240"/>
<path d="M39.5421 20.1544L37.8464 17.0302H30.21V46.3888H39.6019V30.1474C39.6019 25.7937 42.4869 24.3425 47.8045 24.9011L47.8614 16.9769C43.5624 16.4183 41.0728 17.8695 39.545 20.1572L39.5421 20.1544Z" fill="#145240"/>
<path d="M65.3962 16.4154C56.3457 16.4154 49.9526 22.9446 49.9526 31.8203C49.9526 40.6961 56.5705 46.9446 65.9055 46.9446C72.8079 46.9446 78.8027 42.7593 80.3875 36.8982L72.1848 36.0618C71.0525 38.1277 68.8474 39.2982 65.9624 39.2982C62.5112 39.2982 59.74 37.2323 59.3986 34.4982H80.8399C81.2922 22.1642 74.4467 16.4154 65.3962 16.4154ZM59.3417 28.4154C59.5124 25.5691 62.056 23.84 65.3962 23.84C68.7365 23.84 71.2232 25.6814 71.4508 28.4154H59.3446H59.3417Z" fill="#145240"/>
<path d="M93.6261 25.1228C93.6261 23.8961 95.2109 23.3375 96.8497 23.3375C99.453 23.3375 100.81 24.7326 101.035 26.3523L109.974 26.0744C109.918 20.8842 104.771 16.3621 96.9635 16.3621C90.2318 16.3621 84.5187 19.8231 84.5187 25.7937C84.5187 36.8449 101.433 33.774 101.433 37.7937C101.433 39.0203 99.8485 39.6912 97.7573 39.6912C94.7585 39.6912 92.6644 38.1838 92.5535 36.2302L83.3892 36.5642C83.503 43.9326 90.2916 46.9445 97.4756 46.9445C105.169 46.9445 110.882 43.4835 110.882 37.3445C110.882 25.9031 93.6261 29.1396 93.6261 25.12V25.1228Z" fill="#145240"/>
<path d="M144.933 46.2568C144.916 46.2653 144.899 46.2737 144.879 46.2849V29.3081C144.879 20.3789 139.052 16.4154 132.83 16.4154C128.869 16.4154 126.041 17.9228 124.232 20.5446V4.52772H114.84V46.3888H124.232V30.8716C124.232 26.24 126.721 24.3425 129.888 24.3425C132.491 24.3425 135.376 25.6253 135.376 30.8154V46.3888C135.615 49.5074 137.567 52.2807 140.415 53.7375C141.75 54.4197 143.198 54.7565 144.637 54.7565C146.495 54.7565 148.345 54.1951 149.927 53.0919L150.137 52.9347L157.947 46.7368C160.346 48.073 163.225 48.7495 166.551 48.7495C170.366 48.7495 174.207 47.1326 177.693 44.073C178.964 45.7853 180.674 47.1467 182.746 47.9579C184.089 48.4828 185.517 48.7411 186.959 48.7411C188.988 48.7411 191.048 48.2274 192.948 47.214C194.129 46.5853 195.213 45.7853 196.181 44.8477C196.966 45.8386 197.945 46.6919 199.094 47.3572C200.707 48.2891 202.485 48.7579 204.267 48.7551C205.985 48.7551 207.704 48.32 209.28 47.4498C210.694 46.6667 212.062 45.7825 213.377 44.8084C214.165 45.8161 215.158 46.6835 216.322 47.3572C217.935 48.2891 219.713 48.7579 221.494 48.7551C223.213 48.7551 224.931 48.32 226.507 47.4498C227.054 47.1495 227.588 46.8267 228.12 46.4954C228.012 47.1551 227.899 47.8091 227.759 48.4463C226.954 52.1488 225.776 54.3944 224.262 55.1214C220.621 56.8702 215.946 53.0526 213.485 50.6246L207.45 56.5782C212.418 61.4793 217.522 64.0028 222.288 64C224.26 64 226.174 63.5677 227.998 62.6947C234.021 59.8063 235.592 52.5867 236.11 50.2147C236.232 49.6477 236.346 49.0751 236.448 48.494C237.199 48.6653 237.965 48.7579 238.727 48.7579C240.446 48.7579 242.164 48.3228 243.74 47.4526C246.719 45.8049 249.496 43.7193 252 41.2491L245.965 35.2954C244.016 37.2182 241.863 38.8379 239.569 40.1067C238.824 40.5165 238.187 40.2751 237.874 40.0926C237.672 39.9747 237.382 39.753 237.202 39.3853C237.199 37.9537 237.145 36.4968 237.037 35.0147V22.6077H228.502V35.52C226.615 37.3418 224.544 38.8884 222.342 40.1067C221.596 40.5165 220.959 40.2751 220.646 40.0926C220.333 39.913 219.81 39.4835 219.81 38.6498V22.6049H211.274V35.5172C209.388 37.3389 207.317 38.8856 205.114 40.1039C204.372 40.5137 203.732 40.2723 203.419 40.0898C203.106 39.9102 202.582 39.4807 202.582 38.647V22.6021H194.971C194.428 22.2765 193.859 21.9958 193.264 21.7628C186.769 19.2253 179.129 23.0372 176.23 30.2596C175.687 31.6126 175.351 32.9881 175.2 34.3495L175.109 34.2933C175.098 34.3102 174.008 35.986 172.244 37.5916C170.873 38.8407 168.77 40.3284 166.557 40.3284C165.635 40.3284 164.463 40.3284 163.29 39.9411C164.565 38.0912 165.837 35.9944 167.083 33.6168C171.786 24.6344 174.221 14.793 173.285 8.54175C172.099 0.614737 166.283 0 164.531 0C161.413 0 158.587 1.12561 156.362 3.25333C154.564 4.97123 153.127 7.37404 152.089 10.3972C150.544 14.8856 149.793 20.8225 149.793 28.5389C149.793 33.3333 150.527 37.2267 152.023 40.32L144.939 46.2568H144.933ZM160.166 13.1032C160.422 12.3565 160.863 11.0793 161.632 10.0463C162.667 8.65684 164.915 9.39509 164.952 11.1214C164.992 13.047 164.676 15.9214 163.561 19.7418C162.428 23.6323 160.659 27.7951 158.465 31.6182C158.374 30.6919 158.323 29.6702 158.323 28.5361C158.323 21.847 158.943 16.654 160.166 13.1004V13.1032ZM191.847 36.3593C191.241 37.8695 190.163 39.127 188.894 39.8035C188.291 40.1263 187.099 40.5951 185.892 40.1235C183.81 39.3095 183.019 36.2105 184.163 33.3558C185.116 30.9811 187.164 29.3895 189.022 29.3895C189.398 29.3895 189.768 29.454 190.117 29.5916C191.324 30.0632 191.867 31.2112 192.083 31.8512C192.539 33.2042 192.453 34.8463 191.847 36.3565V36.3593Z" fill="#145240"/>
</g>
<defs>
<clipPath id="clip0_80_253">
<rect width="252" height="64" fill="white"/>
</clipPath>
</defs>
</svg>
