<svg width="86" height="86" viewBox="0 0 86 86" fill="none" xmlns="http://www.w3.org/2000/svg">
<mask id="mask0_43_1920" style="mask-type:luminance" maskUnits="userSpaceOnUse" x="0" y="0" width="86" height="86">
<path d="M43.0204 85.5566C66.5096 85.5566 85.5514 66.5066 85.5514 43.0073C85.5514 19.508 66.5096 0.458008 43.0204 0.458008C19.5311 0.458008 0.489258 19.508 0.489258 43.0073C0.489258 66.5066 19.5311 85.5566 43.0204 85.5566Z" fill="white"/>
</mask>
<g mask="url(#mask0_43_1920)">
<path d="M35.7359 55.9181V67.0184L8.74115 85.4022L-4.94385 120.414L7.49024 129.132L17.8395 109.518V148.746H56.2342V108.429L70.1569 125.545L83.2581 117.352L64.4235 78.8488L48.0449 64.1026L46.6105 54.4497" stroke="#145240" stroke-width="4" stroke-linecap="round" stroke-linejoin="round"/>
<path d="M26.2539 73.4759L39.8555 107.882L54.7789 70.1679" stroke="#145240" stroke-width="4" stroke-linecap="round" stroke-linejoin="round"/>
<path d="M64.4233 78.8488L39.8554 107.882L16.5967 80.0543" stroke="#145240" stroke-width="4" stroke-linecap="round" stroke-linejoin="round"/>
<path d="M27.634 28.6448C25.0571 31.5398 23.481 35.3442 23.481 39.524C23.481 48.572 30.8113 55.9097 39.8596 55.9097C48.9079 55.9097 56.2382 48.5762 56.2382 39.524C39.2008 41.9602 27.8466 28.8867 27.6382 28.6448H27.634Z" stroke="#145240" stroke-width="4" stroke-linecap="round" stroke-linejoin="round"/>
<path d="M39.8555 23.1426C34.9894 23.1426 30.6321 25.2784 27.634 28.649C27.8425 28.8909 39.1967 41.9644 56.2341 39.5282C56.2341 30.4802 48.9038 23.1426 39.8555 23.1426Z" fill="#145240" stroke="#145240" stroke-width="4" stroke-linecap="round" stroke-linejoin="round"/>
<path d="M58.6901 36.2495C65.9257 36.2495 71.7914 30.3813 71.7914 23.1426C71.7914 15.9039 65.9257 10.0358 58.6901 10.0358C51.4545 10.0358 45.5889 15.9039 45.5889 23.1426C45.5889 30.3813 51.4545 36.2495 58.6901 36.2495Z" fill="#145240" stroke="#145240" stroke-width="4" stroke-linecap="round" stroke-linejoin="round"/>
</g>
</svg>
