<svg width="27" height="26" viewBox="0 0 27 26" fill="none" xmlns="http://www.w3.org/2000/svg">
<path d="M11.6094 1.6642C12.3948 0.425421 14.2022 0.425421 14.9876 1.6642L18.0535 6.49988C18.3262 6.93001 18.7527 7.2399 19.2461 7.36634L24.7925 8.78784C26.2133 9.15199 26.7719 10.871 25.8364 12.0007L22.1848 16.4109C21.86 16.8031 21.6971 17.3045 21.7293 17.8128L22.0913 23.527C22.184 24.9909 20.7218 26.0533 19.3582 25.5127L14.0356 23.4026C13.5621 23.215 13.0349 23.215 12.5614 23.4026L7.23878 25.5127C5.87524 26.0533 4.41298 24.9909 4.50572 23.527L4.86772 17.8128C4.89993 17.3045 4.73701 16.8031 4.4122 16.4109L0.760597 12.0007C-0.17485 10.871 0.383686 9.15199 1.80453 8.78784L7.35094 7.36634C7.84429 7.2399 8.27082 6.93001 8.54353 6.49988L11.6094 1.6642Z" fill="#145240"/>
</svg>
