<svg width="37" height="34" viewBox="0 0 37 34" fill="none" xmlns="http://www.w3.org/2000/svg">
<path d="M1 2L5.91416 2.33577L10.5011 20.9453L13.1787 22.9684L30.024 22.7009" stroke="#145240" stroke-width="3" stroke-miterlimit="10"/>
<path d="M7.00977 6.03775L34.7675 5.96661L31.1964 18.1311L10.6662 18.3189" stroke="#145240" stroke-width="3" stroke-miterlimit="10"/>
<path d="M26.1826 32C27.7542 32 29.0281 30.726 29.0281 29.1545C29.0281 27.583 27.7542 26.309 26.1826 26.309C24.6111 26.309 23.3372 27.583 23.3372 29.1545C23.3372 30.726 24.6111 32 26.1826 32Z" stroke="#145240" stroke-width="3" stroke-miterlimit="10"/>
<path d="M14.8006 32C16.3721 32 17.6461 30.726 17.6461 29.1545C17.6461 27.583 16.3721 26.309 14.8006 26.309C13.229 26.309 11.9551 27.583 11.9551 29.1545C11.9551 30.726 13.229 32 14.8006 32Z" stroke="#145240" stroke-width="3" stroke-miterlimit="10"/>
</svg>
