<svg xmlns="http://www.w3.org/2000/svg" fill="none" viewBox="0.3225806451612903 0.16129032258064518 16.290322580645164 29.193548387096776" style="max-height: 500px" width="16.290322580645164" height="29.193548387096776">
<path fill="#145240" d="M5.784 29.2L6.424 26.416C5.976 26.352 5.528 26.256 5.08 26.16L4.408 29.2H3.512L4.248 25.904C2.84 25.424 1.592 24.624 0.6 23.536V18.512C1.88 20.016 3.448 21.136 5.208 21.712L6.456 16.176L5.304 15.696C2.392 14.448 0.984 12.464 0.984 9.776C0.984 5.808 4.248 3.12 8.696 3.12L9.4 3.152L10.008 0.4H10.904L10.264 3.216C10.744 3.28 11.192 3.344 11.608 3.472L12.312 0.4H13.208L12.472 3.728C13.528 4.08 14.488 4.624 15.352 5.328V10.192C14.392 9.136 12.984 8.304 11.544 7.792L10.424 12.656L11.928 13.232C14.808 14.32 16.28 16.432 16.28 19.344C16.28 23.76 12.92 26.48 7.8 26.48H7.288L6.68 29.2H5.784ZM5.944 9.424C5.944 10.32 6.392 10.96 7.512 11.472L8.44 7.312C6.84 7.44 5.944 8.208 5.944 9.424ZM6.04 21.968C6.488 22.064 6.936 22.128 7.384 22.16L8.536 17.072L7.256 16.528L6.04 21.968ZM8.28 22.192C10.168 22.128 11.32 21.2 11.32 19.76C11.32 18.736 10.68 18 9.336 17.424L8.28 22.192ZM8.312 11.824L9.624 12.336L10.68 7.568C10.232 7.44 9.784 7.376 9.336 7.344L8.312 11.824ZM22.4563 26V23.344V9.296H17.8483L25.9123 3.44H26.9363V23.376V26H22.4563ZM38.0677 16.784C40.1478 14.224 41.0438 12.944 41.0438 10.992C41.0438 8.624 39.4118 7.216 37.0118 7.216C34.3878 7.216 32.3078 8.56 31.0278 11.152C31.0598 6.128 34.2598 3.12 38.9638 3.12C43.0278 3.12 46.0358 5.392 46.0358 9.776C46.0358 12.688 44.8838 14.928 41.8118 18.544L39.3158 21.488H46.5158V26H30.8038L38.0677 16.784ZM53.6668 26.48C52.0988 26.48 50.8188 25.168 50.8188 23.632C50.8188 22 52.0988 20.752 53.6668 20.752C55.2988 20.752 56.5468 22 56.5468 23.632C56.5468 25.168 55.2988 26.48 53.6668 26.48ZM67.0373 26.48C64.3493 26.48 62.2053 25.616 60.4453 23.952V19.376C62.1733 21.424 64.1893 22.384 66.4933 22.384C69.3093 22.384 71.0373 21.008 71.0373 18.48C71.0373 16.048 69.2453 14.512 65.9173 14.512C64.2533 14.512 62.3653 14.864 61.3093 15.44L63.9653 3.6H75.7093V7.728H66.8453L66.0773 11.28C66.6853 11.184 67.3253 11.12 68.0293 11.12C72.8613 11.12 75.7093 14.032 75.7093 18.256C75.7093 23.408 72.0613 26.48 67.0373 26.48ZM85.8185 26.48C83.1305 26.48 80.9865 25.616 79.2265 23.952V19.376C80.9545 21.424 82.9705 22.384 85.2745 22.384C88.0905 22.384 89.8185 21.008 89.8185 18.48C89.8185 16.048 88.0265 14.512 84.6985 14.512C83.0345 14.512 81.1465 14.864 80.0905 15.44L82.7465 3.6H94.4905V7.728H85.6265L84.8585 11.28C85.4665 11.184 86.1065 11.12 86.8105 11.12C91.6425 11.12 94.4905 14.032 94.4905 18.256C94.4905 23.408 90.8425 26.48 85.8185 26.48Z"/>
</svg>