<svg width="22" height="20" viewBox="0 0 22 20" fill="none" xmlns="http://www.w3.org/2000/svg">
<path d="M2 6.99997V5.49997H0.5V6.99997H2ZM2 15H0.5V15.5616L0.868878 15.9851L2 15ZM4.6129 18L3.48178 18.9851L3.93018 19.5H4.6129V18ZM17.3871 18V19.5H18.0699L18.5183 18.9851L17.3871 18ZM20.0001 15L21.1312 15.9851L21.5001 15.5616V15H20.0001ZM20.0001 6.99997H21.5001V5.49997H20.0001V6.99997ZM2 8.49997H10.1291V5.49997H2V8.49997ZM3.5 15V6.99997H0.5V15H3.5ZM5.74403 17.0148L3.13112 14.0148L0.868878 15.9851L3.48178 18.9851L5.74403 17.0148ZM10.1291 16.5H4.6129V19.5H10.1291V16.5ZM10.1291 19.5H11.871V16.5H10.1291V19.5ZM11.871 19.5H17.3871V16.5H11.871V19.5ZM18.5183 18.9851L21.1312 15.9851L18.8689 14.0148L16.256 17.0148L18.5183 18.9851ZM21.5001 15V6.99997H18.5001V15H21.5001ZM20.0001 5.49997H11.871V8.49997H20.0001V5.49997ZM11.871 5.49997H10.1291V8.49997H11.871V5.49997Z" fill="#145240"/>
<rect x="9.5" y="1.5" width="3" height="5" stroke="#145240" stroke-width="3"/>
</svg>
